<svg width="34" height="34" viewBox="0 0 34 34" fill="none" xmlns="http://www.w3.org/2000/svg">
<g clip-path="url(#clip0_72_104)">
<path d="M26.7033 17.0461L21.2542 15.8602C20.9967 15.8042 20.7274 15.8505 20.5034 15.9893C20.2793 16.1281 20.1179 16.3485 20.0533 16.604L19.1987 19.9818C18.6366 20.1775 17.4354 20.4478 15.7841 20.0076C14.1309 19.5639 13.2243 18.7265 12.8399 18.278L13.7865 14.9256C13.8586 14.672 13.8291 14.4003 13.7044 14.168C13.5797 13.9357 13.3695 13.761 13.1183 13.681L7.80771 11.9838C7.55614 11.9033 7.28308 11.924 7.04653 12.0415C6.80997 12.159 6.62855 12.3642 6.5408 12.6133L5.57775 15.3505C5.51384 15.5908 5.54033 15.8462 5.65221 16.0682C5.7659 16.2956 8.52002 21.6465 14.8882 23.3543C20.4422 24.8417 25.002 22.5526 26.2168 21.8512C26.3944 21.7487 26.5004 21.6805 26.5284 21.662C26.7364 21.5258 26.8866 21.3176 26.9503 21.0773L27.4835 18.2249C27.533 17.9655 27.4791 17.697 27.3333 17.4767C27.1876 17.2565 26.9615 17.102 26.7033 17.0461V17.0461Z" fill="#2F80ED"/>
</g>
<defs>
<clipPath id="clip0_72_104">
<rect width="24.3609" height="24.3609" fill="white" transform="translate(-0.0045166 12.3768) rotate(-30)"/>
</clipPath>
</defs>
</svg>
