<svg width="63" height="66" viewBox="0 0 63 66" fill="none" xmlns="http://www.w3.org/2000/svg">
<g filter="url(#filter0_d_72_52)">
<path d="M30.5055 28.0216C29.7148 28.4781 29.4414 29.4986 29.8979 30.2894C30.3544 31.0801 31.3749 31.3535 32.1657 30.897C32.9564 30.4405 33.2298 29.42 32.7733 28.6292C32.3168 27.8385 31.2963 27.565 30.5055 28.0216ZM28.0153 23.7085C27.2246 24.165 26.9512 25.1855 27.4077 25.9762C27.8642 26.767 28.8847 27.0404 29.6755 26.5839C30.4662 26.1273 30.7397 25.1068 30.2831 24.3161C29.8266 23.5254 28.8061 23.2519 28.0153 23.7085ZM32.9957 32.3347C32.205 32.7913 31.9315 33.8118 32.3881 34.6025C32.8446 35.3932 33.8651 35.6667 34.6559 35.2101C35.4466 34.7536 35.72 33.7331 35.2635 32.9424C34.807 32.1516 33.7865 31.8782 32.9957 32.3347Z" fill="#4F5E7B"/>
</g>
<defs>
<filter id="filter0_d_72_52" x="-8.83302" y="-7.38911" width="80.3373" height="80.3374" filterUnits="userSpaceOnUse" color-interpolation-filters="sRGB">
<feFlood flood-opacity="0" result="BackgroundImageFix"/>
<feColorMatrix in="SourceAlpha" type="matrix" values="0 0 0 0 0 0 0 0 0 0 0 0 0 0 0 0 0 0 127 0" result="hardAlpha"/>
<feOffset dy="3.32025"/>
<feGaussianBlur stdDeviation="13.281"/>
<feColorMatrix type="matrix" values="0 0 0 0 0.27451 0 0 0 0 0.376471 0 0 0 0 0.529412 0 0 0 0.1 0"/>
<feBlend mode="normal" in2="BackgroundImageFix" result="effect1_dropShadow_72_52"/>
<feBlend mode="normal" in="SourceGraphic" in2="effect1_dropShadow_72_52" result="shape"/>
</filter>
</defs>
</svg>
