<svg width="28" height="28" viewBox="0 0 28 28" fill="none" xmlns="http://www.w3.org/2000/svg">
<g clip-path="url(#clip0_72_309)">
<path d="M18.0967 21.4866C18.5423 21.2301 18.8968 20.8412 19.1111 20.3739C19.3254 19.9067 19.3888 19.3842 19.2924 18.8793L15.241 21.2184C15.6301 21.5543 16.1142 21.7606 16.626 21.8087C17.1378 21.8567 17.6519 21.7441 18.0967 21.4866V21.4866ZM20.0517 13.2517L18.1484 9.95507C16.8132 7.64251 14.1178 6.60125 11.6517 7.24388C11.1348 6.83497 10.4043 6.75833 9.79612 7.10944C9.18797 7.46056 8.88908 8.13153 8.98475 8.78365C7.1956 10.5987 6.74922 13.4529 8.08438 15.7655L9.98772 19.0622L9.46909 20.9977C9.44068 21.103 9.43337 21.2128 9.44758 21.3209C9.46179 21.429 9.49724 21.5332 9.55189 21.6276L9.96692 22.3464C10.077 22.5371 10.2583 22.6762 10.4709 22.7332C10.6836 22.7901 10.9102 22.7603 11.1008 22.6502L22.6025 16.0097C22.7932 15.8997 22.9323 15.7184 22.9892 15.5057C23.0462 15.2931 23.0164 15.0665 22.9063 14.8758L22.4913 14.157C22.4369 14.0625 22.3644 13.9797 22.2779 13.9133C22.1914 13.847 22.0926 13.7984 21.9872 13.7704L20.0517 13.2517Z" fill="#2F80ED"/>
</g>
<defs>
<clipPath id="clip0_72_309">
<rect width="19.9215" height="19.9215" fill="white" transform="translate(0.339661 10.6521) rotate(-30)"/>
</clipPath>
</defs>
</svg>
