<svg width="28" height="28" viewBox="0 0 28 28" fill="none" xmlns="http://www.w3.org/2000/svg">
<g clip-path="url(#clip0_72_326)">
<path d="M14.2216 23.97L23.5667 18.5746C23.948 18.3545 24.2262 17.9919 24.3402 17.5666C24.4541 17.1413 24.3945 16.6882 24.1743 16.3068L17.5338 4.80516C17.3137 4.42385 16.9511 4.14562 16.5258 4.03166C16.1005 3.9177 15.6474 3.97736 15.2661 4.19751L5.20209 10.0079C4.82078 10.2281 4.54255 10.5907 4.42859 11.016C4.31463 11.4413 4.37429 11.8944 4.59444 12.2757L11.2349 23.7774C11.4551 24.1587 11.8177 24.437 12.243 24.5509C12.6683 24.6649 13.1214 24.6052 13.5027 24.3851L14.2216 23.97ZM11.4788 9.25858C12.6627 8.57502 14.196 8.98466 14.8804 10.17C15.5644 11.3547 15.1533 12.8889 13.9694 13.5724C12.7854 14.256 11.2513 13.8449 10.5673 12.6602C9.8829 11.4748 10.2948 9.94213 11.4788 9.25858V9.25858ZM12.2502 20.5555C11.3292 18.9603 12.327 16.198 14.6957 14.8304C17.0643 13.4629 19.9555 13.9799 20.8764 15.5751L21.1877 16.1142L12.5614 21.0946L12.2502 20.5555Z" fill="#2F80ED"/>
</g>
<defs>
<clipPath id="clip0_72_326">
<rect width="19.9215" height="19.9215" fill="white" transform="translate(0.777649 10.6454) rotate(-30)"/>
</clipPath>
</defs>
</svg>
