<svg width="19" height="19" viewBox="0 0 19 19" fill="none" xmlns="http://www.w3.org/2000/svg">
<path d="M8.84101 8.82461C8.31385 9.12897 8.13156 9.8093 8.43591 10.3365C8.74027 10.8636 9.4206 11.0459 9.94776 10.7416C10.4749 10.4372 10.6572 9.75687 10.3529 9.22971C10.0485 8.70255 9.36817 8.52025 8.84101 8.82461ZM7.18089 5.94919C6.65373 6.25354 6.47143 6.93388 6.77579 7.46104C7.08014 7.9882 7.76048 8.17049 8.28764 7.86614C8.8148 7.56178 8.99709 6.88145 8.69274 6.35429C8.38838 5.82713 7.70805 5.64483 7.18089 5.94919ZM10.5011 11.7C9.97398 12.0044 9.79168 12.6847 10.096 13.2119C10.4004 13.739 11.0807 13.9213 11.6079 13.617C12.1351 13.3126 12.3173 12.6323 12.013 12.1051C11.7086 11.578 11.0283 11.3957 10.5011 11.7Z" fill="#2F80ED"/>
</svg>
