<svg width="34" height="34" viewBox="0 0 34 34" fill="none" xmlns="http://www.w3.org/2000/svg">
<g clip-path="url(#clip0_72_114)">
<path d="M27.1395 17.0309L21.6904 15.845C21.4328 15.789 21.1636 15.8353 20.9395 15.974C20.7154 16.1128 20.5541 16.3332 20.4894 16.5887L19.6349 19.9666C19.0727 20.1622 17.8716 20.4326 16.2203 19.9924C14.567 19.5486 13.6604 18.7113 13.2761 18.2627L14.2227 14.9103C14.2947 14.6567 14.2653 14.385 14.1406 14.1527C14.0159 13.9204 13.8057 13.7458 13.5545 13.6657L8.24386 11.9686C7.9923 11.888 7.71924 11.9087 7.48268 12.0262C7.24613 12.1438 7.06471 12.3489 6.97695 12.598L6.01391 15.3353C5.95 15.5755 5.97649 15.8309 6.08837 16.0529C6.20206 16.2803 8.95618 21.6312 15.3243 23.339C20.8784 24.8265 25.4382 22.5373 26.653 21.8359C26.8306 21.7334 26.9365 21.6652 26.9645 21.6467C27.1725 21.5106 27.3228 21.3023 27.3865 21.062L27.9197 18.2096C27.9692 17.9502 27.9153 17.6817 27.7695 17.4615C27.6237 17.2412 27.3976 17.0867 27.1395 17.0309V17.0309Z" fill="#2F80ED"/>
</g>
<defs>
<clipPath id="clip0_72_114">
<rect width="24.3609" height="24.3609" fill="white" transform="translate(0.431641 12.3616) rotate(-30)"/>
</clipPath>
</defs>
</svg>
