<svg width="28" height="28" viewBox="0 0 28 28" fill="none" xmlns="http://www.w3.org/2000/svg">
<g clip-path="url(#clip0_72_342)">
<path d="M9.48217 7.12982C7.50028 8.27406 6.81881 10.8174 7.96305 12.7993L9.20814 14.9558L8.48929 15.3709C8.10798 15.591 7.82975 15.9536 7.71579 16.3789C7.60184 16.8042 7.66149 17.2573 7.88164 17.6386L11.2019 23.3895C11.422 23.7708 11.7846 24.049 12.2099 24.163C12.6352 24.2769 13.0884 24.2173 13.4697 23.9971L22.0959 19.0167C22.4772 18.7966 22.7555 18.434 22.8694 18.0087C22.9834 17.5834 22.9237 17.1303 22.7036 16.749L19.3833 10.9981C19.1632 10.6168 18.8006 10.3386 18.3753 10.2246C17.95 10.1107 17.4969 10.1703 17.1156 10.3905L16.3967 10.8055L15.1516 8.64894C14.0074 6.66706 11.4641 5.98558 9.48217 7.12982ZM9.40076 11.9692C8.7143 10.7802 9.12324 9.25399 10.3122 8.56753C11.5012 7.88107 13.0274 8.29002 13.7139 9.479L14.959 11.6356L10.6459 14.1258L9.40076 11.9692ZM16.7266 18.0174L17.6716 19.6542L16.2339 20.4843L15.2889 18.8474C14.9544 18.8486 14.6275 18.7484 14.3512 18.56C14.0749 18.3717 13.8621 18.104 13.741 17.7923C13.6199 17.4806 13.5961 17.1395 13.6727 16.8139C13.7494 16.4884 13.9229 16.1938 14.1704 15.9689C14.3537 15.801 14.5725 15.6765 14.8104 15.6044C15.0483 15.5324 15.2993 15.5146 15.545 15.5525C15.7907 15.5904 16.0247 15.683 16.2299 15.8234C16.435 15.9638 16.606 16.1484 16.7303 16.3637C16.8751 16.6154 16.9509 16.9007 16.9503 17.1911C16.9496 17.4814 16.8724 17.7664 16.7266 18.0174V18.0174Z" fill="#2F80ED"/>
</g>
<defs>
<clipPath id="clip0_72_342">
<rect width="19.9215" height="19.9215" fill="white" transform="translate(0.0257568 10.6725) rotate(-30)"/>
</clipPath>
</defs>
</svg>
