<svg width="29" height="28" viewBox="0 0 29 28" fill="none" xmlns="http://www.w3.org/2000/svg">
<g clip-path="url(#clip0_72_60)">
<path d="M16.2255 16.484C17.8113 15.5685 18.3563 13.5343 17.4408 11.9485L14.9506 7.63533C14.0304 6.04163 11.9986 5.48564 10.4214 6.39622C10.371 6.42574 10.3241 6.46087 10.2815 6.50093C9.56411 6.96285 9.05171 7.68288 8.85035 8.51205C8.64898 9.34122 8.77407 10.2161 9.19973 10.9556L11.6899 15.2687C12.6055 16.8545 14.6397 17.3996 16.2255 16.484Z" fill="white"/>
<path d="M17.1381 19.7249L17.9968 21.2122L19.4345 20.3821L18.5758 18.8948C21.2019 16.9042 22.0066 13.2162 20.3161 10.2883L18.8784 11.1184C20.2518 13.4971 19.4342 16.5484 17.0555 17.9217C14.6768 19.2951 11.6255 18.4775 10.2522 16.0988L8.81445 16.9288C10.5045 19.856 14.101 21.0038 17.1381 19.7249Z" fill="white"/>
</g>
<defs>
<clipPath id="clip0_72_60">
<rect width="19.9215" height="19.9215" fill="white" transform="translate(0.958618 9.96265) rotate(-30)"/>
</clipPath>
</defs>
</svg>
