<svg width="34" height="35" viewBox="0 0 34 35" fill="none" xmlns="http://www.w3.org/2000/svg">
<g clip-path="url(#clip0_72_140)">
<path d="M27.4028 17.7111L21.9537 16.5252C21.6961 16.4692 21.4269 16.5154 21.2028 16.6542C20.9787 16.793 20.8174 17.0134 20.7527 17.2689L19.8982 20.6468C19.336 20.8424 18.1349 21.1128 16.4836 20.6725C14.8303 20.2288 13.9237 19.3914 13.5394 18.9429L14.486 15.5905C14.558 15.3369 14.5286 15.0652 14.4039 14.8329C14.2792 14.6006 14.069 14.426 13.8178 14.3459L8.50717 12.6487C8.2556 12.5682 7.98255 12.5889 7.74599 12.7064C7.50943 12.8239 7.32801 13.0291 7.24026 13.2782L6.27722 16.0154C6.2133 16.2557 6.2398 16.5111 6.35167 16.7331C6.46537 16.9605 9.21949 22.3114 15.5876 24.0192C21.1417 25.5067 25.7015 23.2175 26.9163 22.5161C27.0939 22.4136 27.1998 22.3454 27.2278 22.3269C27.4358 22.1907 27.5861 21.9825 27.6498 21.7422L28.183 18.8898C28.2325 18.6304 28.1786 18.3619 28.0328 18.1416C27.887 17.9214 27.6609 17.7669 27.4028 17.7111V17.7111Z" fill="#2F80ED"/>
</g>
<defs>
<clipPath id="clip0_72_140">
<rect width="24.3609" height="24.3609" fill="white" transform="translate(0.694946 13.0417) rotate(-30)"/>
</clipPath>
</defs>
</svg>
