<svg width="28" height="28" viewBox="0 0 28 28" fill="none" xmlns="http://www.w3.org/2000/svg">
<g opacity="0.5" clip-path="url(#clip0_72_65)">
<path d="M9.85091 6.49483C5.88714 8.78331 4.52419 13.8699 6.81267 17.8337C9.10115 21.7975 14.1878 23.1604 18.1515 20.8719C22.1153 18.5835 23.4783 13.4968 21.1898 9.53307C18.9013 5.5693 13.8147 4.20634 9.85091 6.49483ZM17.3215 19.4342C14.1506 21.2649 10.0811 20.1745 8.25038 17.0036C6.41968 13.8328 7.5101 9.76324 10.681 7.93254C13.8518 6.10183 17.9214 7.19226 19.7521 10.3631C21.5828 13.534 20.4924 17.6035 17.3215 19.4342Z" fill="#1B1A57"/>
<path d="M17.2087 14.5422C17.0971 14.9558 16.9076 15.3443 16.6504 15.6869C16.1857 16.301 15.5221 16.7346 14.7731 16.9135C14.0241 17.0925 13.2362 17.0056 12.5442 16.6678L11.8167 18.1604C12.3924 18.4396 13.0161 18.6065 13.6543 18.6521C14.3037 18.6983 14.9557 18.616 15.5732 18.4098C16.2134 18.1959 16.8039 17.855 17.3092 17.4075C17.7964 16.9757 18.1937 16.4522 18.4786 15.8669C18.6156 15.5846 18.7284 15.2836 18.8121 14.9737C18.8951 14.666 18.9489 14.3474 18.9708 14.03L17.3145 13.9137C17.2994 14.1261 17.2639 14.3366 17.2087 14.5422V14.5422Z" fill="#1B1A57"/>
<path d="M11.4854 15.1359C12.0809 14.7921 12.2849 14.0306 11.9411 13.4351C11.5973 12.8396 10.8358 12.6356 10.2403 12.9794C9.64475 13.3232 9.44071 14.0847 9.78453 14.6802C10.1284 15.2757 10.8898 15.4798 11.4854 15.1359Z" fill="#1B1A57"/>
<path d="M16.5064 12.2236C17.0991 11.8814 17.3022 11.1235 16.96 10.5307C16.6178 9.938 15.8598 9.73492 15.2671 10.0771C14.6744 10.4194 14.4713 11.1773 14.8135 11.77C15.1557 12.3628 15.9136 12.5659 16.5064 12.2236Z" fill="#1B1A57"/>
</g>
<defs>
<clipPath id="clip0_72_65">
<rect width="19.9215" height="19.9215" fill="white" transform="translate(0.394653 10.0375) rotate(-30)"/>
</clipPath>
</defs>
</svg>
