<svg width="28" height="28" viewBox="0 0 28 28" fill="none" xmlns="http://www.w3.org/2000/svg">
<g clip-path="url(#clip0_72_317)">
<path d="M10.6602 6.74463L14.3743 13.1777L20.8074 9.46355C18.5118 6.26777 14.2461 5.12479 10.6602 6.74463V6.74463ZM21.6833 17.588C22.5774 15.5027 22.6205 13.0788 21.6374 10.9013L15.755 14.2975L21.6833 17.588Z" fill="#2F80ED"/>
<path d="M13.3516 14.7265L9.22245 7.57465C5.80428 10.0312 4.73369 14.741 6.88189 18.4618C9.17038 22.4256 14.257 23.7886 18.2208 21.5001C19.2783 20.8877 20.1864 20.0477 20.8794 19.0411C20.8794 19.0411 13.4033 14.8127 13.3544 14.7297C13.3536 14.7286 13.3527 14.7275 13.3516 14.7265V14.7265Z" fill="#2F80ED"/>
</g>
<defs>
<clipPath id="clip0_72_317">
<rect width="19.9215" height="19.9215" fill="white" transform="translate(0.463745 10.6656) rotate(-30)"/>
</clipPath>
</defs>
</svg>
