<svg width="14" height="15" viewBox="0 0 14 15" fill="none" xmlns="http://www.w3.org/2000/svg">
<path fill-rule="evenodd" clip-rule="evenodd" d="M8.92844 0.477296L8.20959 0.892328C7.81257 1.12154 7.67655 1.6292 7.90576 2.02622L11.5027 8.2563C11.7319 8.65331 12.2396 8.78934 12.6366 8.56012L13.3554 8.14509C13.7525 7.91588 13.8885 7.40822 13.6593 7.0112L10.0623 0.78112C9.83312 0.384107 9.32546 0.248081 8.92844 0.477296ZM5.82336 4.50648L6.54221 4.09144C6.93923 3.86223 7.44689 3.99826 7.6761 4.39527L10.3046 8.94802C10.5339 9.34503 10.3978 9.85269 10.0008 10.0819L9.28196 10.4969C8.88494 10.7262 8.37728 10.5901 8.14807 10.1931L5.51953 5.64036C5.29032 5.24335 5.42635 4.73569 5.82336 4.50648ZM4.15599 7.70559L3.43713 8.12063C3.04012 8.34984 2.90409 8.8575 3.13331 9.25451L4.79343 12.1299C5.02265 12.5269 5.53031 12.663 5.92732 12.4338L6.64618 12.0187C7.04319 11.7895 7.17922 11.2819 6.95 10.8848L5.28987 8.00942C5.06066 7.6124 4.553 7.47638 4.15599 7.70559ZM1.63135 11.0801L0.91249 11.4951C0.515477 11.7244 0.379451 12.232 0.608666 12.629L1.43873 14.0667C1.66794 14.4637 2.1756 14.5998 2.57262 14.3706L3.29147 13.9555C3.68849 13.7263 3.82451 13.2187 3.5953 12.8216L2.76523 11.3839C2.53602 10.9869 2.02836 10.8509 1.63135 11.0801Z" fill="#21205A"/>
</svg>
