<svg width="360" height="272" viewBox="0 0 360 272" fill="none" xmlns="http://www.w3.org/2000/svg">
<g filter="url(#filter0_d_72_353)">
<rect x="27.3129" y="189.629" width="311.274" height="71.3854" transform="rotate(-30 27.3129 189.629)" fill="white"/>
</g>
<g clip-path="url(#clip0_72_353)">
<path d="M272.198 62.621C268.301 64.8709 266.91 70.063 269.16 73.9599C271.41 77.8568 276.602 79.248 280.499 76.9982C284.396 74.7483 285.787 69.5562 283.537 65.6593C281.287 61.7624 276.095 60.3712 272.198 62.621ZM274.273 66.2153C275.515 65.4986 276.958 65.8846 277.675 67.1268C278.392 68.369 278.005 69.8117 276.764 70.5285C275.523 71.2448 274.079 70.8592 273.362 69.617C272.645 68.3748 273.033 66.9317 274.273 66.2153ZM274.659 75.3591C274.756 74.038 275.466 72.7845 276.697 72.0735L278.135 71.2435C279.367 70.5321 280.807 70.5442 282 71.1208C281.649 72.6346 280.702 74.0053 279.254 74.8416C277.805 75.6779 276.145 75.8121 274.659 75.3591Z" fill="#2F80ED"/>
</g>
<g opacity="0.5" clip-path="url(#clip1_72_353)">
<path d="M212.674 105.613L214.112 104.783C211.983 101.095 207.593 99.9211 203.9 102.053L204.73 103.491C207.65 101.805 210.991 102.697 212.674 105.613Z" fill="#4F5E7B"/>
<path d="M206.397 106.362C207.909 105.489 208.926 105.762 209.799 107.274L211.237 106.444C209.898 104.125 207.886 103.586 205.567 104.924L206.397 106.362ZM211.116 108.855C210.906 108.809 210.686 108.847 210.502 108.96C210.319 109.074 210.187 109.254 210.134 109.463L209.435 112.225C208.976 112.385 207.993 112.606 206.643 112.246C205.291 111.883 204.55 111.199 204.235 110.832L205.01 108.09C205.068 107.883 205.044 107.661 204.942 107.471C204.84 107.281 204.669 107.138 204.463 107.073L200.121 105.685C199.915 105.619 199.692 105.636 199.498 105.733C199.305 105.829 199.156 105.996 199.085 106.2L198.297 108.439C198.245 108.635 198.266 108.844 198.358 109.025C198.451 109.211 200.703 113.587 205.911 114.984C210.453 116.2 214.182 114.328 215.175 113.755C215.32 113.671 215.407 113.615 215.43 113.6C215.6 113.488 215.723 113.318 215.775 113.122L216.211 110.789C216.251 110.577 216.206 110.357 216.087 110.177C215.968 109.997 215.783 109.871 215.572 109.825L211.116 108.855V108.855Z" fill="#4F5E7B"/>
</g>
<g opacity="0.5" clip-path="url(#clip2_72_353)">
<path d="M134.178 142.307C130.214 144.596 128.851 149.682 131.14 153.646C133.428 157.61 138.515 158.973 142.479 156.684C146.442 154.396 147.805 149.309 145.517 145.345C143.228 141.382 138.142 140.019 134.178 142.307ZM142.649 151.513L137.781 150.208L135.119 145.598L136.557 144.767L138.875 148.783L143.079 149.909L142.649 151.513V151.513Z" fill="#4F5E7B"/>
</g>
<g opacity="0.5" clip-path="url(#clip3_72_353)">
<path d="M68.0434 180.49L62.2926 183.81C59.9139 185.184 59.0963 188.235 60.4696 190.614L65.45 199.24C65.5601 199.43 65.7414 199.57 65.954 199.627C66.1667 199.684 66.3932 199.654 66.5839 199.544L75.929 194.148C78.3077 192.775 79.1253 189.724 77.752 187.345L74.8467 182.313C73.4734 179.934 70.4221 179.117 68.0434 180.49ZM67.9362 191.095C67.6502 191.26 67.3104 191.305 66.9914 191.219C66.6724 191.134 66.4005 190.925 66.2354 190.639C66.0703 190.353 66.0255 190.014 66.111 189.695C66.1964 189.376 66.4051 189.104 66.6911 188.939C66.9771 188.773 67.3169 188.729 67.6359 188.814C67.9549 188.9 68.2268 189.108 68.3919 189.394C68.557 189.68 68.6018 190.02 68.5163 190.339C68.4309 190.658 68.2222 190.93 67.9362 191.095ZM71.5305 189.02C71.2445 189.185 70.9046 189.23 70.5857 189.144C70.2667 189.059 69.9948 188.85 69.8296 188.564C69.6645 188.278 69.6198 187.938 69.7053 187.619C69.7907 187.3 69.9994 187.028 70.2854 186.863C70.5714 186.698 70.9112 186.654 71.2302 186.739C71.5491 186.824 71.8211 187.033 71.9862 187.319C72.1513 187.605 72.1961 187.945 72.1106 188.264C72.0251 188.583 71.8165 188.855 71.5305 189.02Z" fill="#4F5E7B"/>
</g>
<path opacity="0.1" fill-rule="evenodd" clip-rule="evenodd" d="M145.214 192.965C144.641 191.972 144.981 190.703 145.974 190.13L238.706 136.591C239.699 136.018 240.968 136.358 241.541 137.35V137.35C242.114 138.343 241.774 139.612 240.781 140.185L148.049 193.724C147.056 194.297 145.787 193.957 145.214 192.965V192.965Z" fill="#333333"/>
<defs>
<filter id="filter0_d_72_353" x="0.750908" y="0.789297" width="358.388" height="270.582" filterUnits="userSpaceOnUse" color-interpolation-filters="sRGB">
<feFlood flood-opacity="0" result="BackgroundImageFix"/>
<feColorMatrix in="SourceAlpha" type="matrix" values="0 0 0 0 0 0 0 0 0 0 0 0 0 0 0 0 0 0 127 0" result="hardAlpha"/>
<feOffset dy="-6.6405"/>
<feGaussianBlur stdDeviation="13.281"/>
<feColorMatrix type="matrix" values="0 0 0 0 0.275608 0 0 0 0 0.377031 0 0 0 0 0.529167 0 0 0 0.1 0"/>
<feBlend mode="normal" in2="BackgroundImageFix" result="effect1_dropShadow_72_353"/>
<feBlend mode="normal" in="SourceGraphic" in2="effect1_dropShadow_72_353" result="shape"/>
</filter>
<clipPath id="clip0_72_353">
<rect width="19.9215" height="19.9215" fill="white" transform="translate(262.742 66.1637) rotate(-30)"/>
</clipPath>
<clipPath id="clip1_72_353">
<rect width="19.9215" height="19.9215" fill="white" transform="translate(193.732 106.007) rotate(-30)"/>
</clipPath>
<clipPath id="clip2_72_353">
<rect width="19.9215" height="19.9215" fill="white" transform="translate(124.722 145.85) rotate(-30)"/>
</clipPath>
<clipPath id="clip3_72_353">
<rect width="19.9215" height="19.9215" fill="white" transform="translate(55.7117 185.693) rotate(-30)"/>
</clipPath>
</defs>
</svg>
