<svg width="403" height="344" viewBox="0 0 403 344" fill="none" xmlns="http://www.w3.org/2000/svg">
<g filter="url(#filter0_d_72_248)">
<rect x="30.1818" y="252.058" width="349.531" height="80.1591" transform="rotate(-30 30.1818 252.058)" fill="white"/>
</g>
<g clip-path="url(#clip0_72_248)">
<path d="M72.6894 243.661C68.2384 246.23 66.2899 251.218 68.3456 254.779C69.7009 257.126 72.4479 258.346 75.6132 258.046L77.9742 262.135L80.4182 256.413C84.6757 253.801 86.5031 248.945 84.4898 245.458C82.4341 241.897 77.1403 241.091 72.6894 243.661Z" fill="#2F80ED"/>
</g>
<g opacity="0.5" clip-path="url(#clip1_72_248)">
<path d="M305.165 109.44C300.789 111.967 299.227 117.797 301.754 122.173C304.28 126.549 310.11 128.111 314.486 125.584C318.862 123.058 320.424 117.228 317.898 112.852C315.371 108.476 309.541 106.914 305.165 109.44ZM307.496 113.476C308.89 112.671 310.51 113.105 311.315 114.5C312.121 115.895 311.686 117.515 310.292 118.32C308.899 119.124 307.277 118.691 306.472 117.296C305.667 115.901 306.102 114.281 307.496 113.476ZM307.928 123.744C308.037 122.26 308.834 120.853 310.217 120.055L311.832 119.122C313.215 118.324 314.832 118.337 316.171 118.985C315.777 120.685 314.715 122.224 313.088 123.163C311.462 124.102 309.597 124.253 307.928 123.744Z" fill="#4F5E7B"/>
</g>
<g opacity="0.5" clip-path="url(#clip2_72_248)">
<path d="M238.325 157.716L239.94 156.784C237.549 152.643 232.619 151.325 228.473 153.719L229.405 155.333C232.684 153.44 236.435 154.442 238.325 157.716Z" fill="#4F5E7B"/>
<path d="M231.277 158.558C232.974 157.578 234.116 157.884 235.097 159.581L236.711 158.649C235.208 156.046 232.948 155.44 230.345 156.943L231.277 158.558ZM236.576 161.357C236.339 161.305 236.092 161.348 235.886 161.475C235.68 161.602 235.532 161.805 235.473 162.04L234.688 165.141C234.172 165.321 233.069 165.569 231.553 165.165C230.035 164.757 229.202 163.989 228.849 163.577L229.718 160.498C229.784 160.265 229.757 160.016 229.643 159.803C229.528 159.589 229.335 159.429 229.105 159.355L224.229 157.798C223.998 157.724 223.747 157.743 223.53 157.851C223.312 157.959 223.146 158.147 223.065 158.376L222.181 160.889C222.122 161.11 222.147 161.344 222.249 161.548C222.354 161.757 224.883 166.671 230.73 168.239C235.831 169.605 240.018 167.503 241.133 166.859C241.296 166.765 241.394 166.702 241.419 166.685C241.61 166.56 241.748 166.369 241.807 166.148L242.296 163.529C242.341 163.29 242.291 163.044 242.157 162.842C242.023 162.64 241.816 162.498 241.579 162.446L236.576 161.357V161.357Z" fill="#4F5E7B"/>
</g>
<g opacity="0.5" clip-path="url(#clip3_72_248)">
<path d="M150.181 198.92C145.73 201.49 144.2 207.202 146.77 211.653C149.339 216.104 155.051 217.634 159.502 215.065C163.953 212.495 165.484 206.783 162.914 202.332C160.344 197.881 154.632 196.351 150.181 198.92ZM159.694 209.257L154.228 207.793L151.238 202.615L152.853 201.683L155.456 206.192L160.176 207.457L159.694 209.257V209.257Z" fill="#4F5E7B"/>
</g>
<g filter="url(#filter1_d_72_248)">
<circle cx="262.947" cy="53.0943" r="26.0983" transform="rotate(-30 262.947 53.0943)" fill="#2F80ED"/>
<g clip-path="url(#clip4_72_248)">
<path d="M258.287 45.0222C253.836 47.592 251.888 52.5797 253.943 56.1403C255.298 58.4868 258.045 59.7079 261.211 59.4072L263.572 63.4966L266.016 57.775C270.274 55.1638 272.101 50.3066 270.088 46.8194C268.032 43.2589 262.738 42.4524 258.287 45.0222ZM265.71 50.4229L263.289 51.821L264.687 54.2427L263.073 55.1747L261.674 52.7531L259.253 54.1512L258.321 52.5368L260.742 51.1387L259.344 48.7171L260.959 47.785L262.357 50.2066L264.778 48.8085L265.71 50.4229Z" fill="white"/>
</g>
</g>
<path opacity="0.1" fill-rule="evenodd" clip-rule="evenodd" d="M162.574 255.804C161.931 254.69 162.312 253.264 163.427 252.621L267.557 192.502C268.671 191.858 270.096 192.24 270.74 193.355V193.355C271.383 194.469 271.002 195.894 269.887 196.538L165.757 256.657C164.643 257.301 163.218 256.919 162.574 255.804V255.804Z" fill="#333333"/>
<defs>
<filter id="filter0_d_72_248" x="0.355162" y="40.0092" width="402.436" height="303.839" filterUnits="userSpaceOnUse" color-interpolation-filters="sRGB">
<feFlood flood-opacity="0" result="BackgroundImageFix"/>
<feColorMatrix in="SourceAlpha" type="matrix" values="0 0 0 0 0 0 0 0 0 0 0 0 0 0 0 0 0 0 127 0" result="hardAlpha"/>
<feOffset dy="-7.45667"/>
<feGaussianBlur stdDeviation="14.9133"/>
<feColorMatrix type="matrix" values="0 0 0 0 0.275608 0 0 0 0 0.377031 0 0 0 0 0.529167 0 0 0 0.1 0"/>
<feBlend mode="normal" in2="BackgroundImageFix" result="effect1_dropShadow_72_248"/>
<feBlend mode="normal" in="SourceGraphic" in2="effect1_dropShadow_72_248" result="shape"/>
</filter>
<filter id="filter1_d_72_248" x="207.018" y="0.893248" width="111.859" height="111.859" filterUnits="userSpaceOnUse" color-interpolation-filters="sRGB">
<feFlood flood-opacity="0" result="BackgroundImageFix"/>
<feColorMatrix in="SourceAlpha" type="matrix" values="0 0 0 0 0 0 0 0 0 0 0 0 0 0 0 0 0 0 127 0" result="hardAlpha"/>
<feOffset dy="3.72833"/>
<feGaussianBlur stdDeviation="14.9133"/>
<feColorMatrix type="matrix" values="0 0 0 0 0.27451 0 0 0 0 0.376471 0 0 0 0 0.529412 0 0 0 0.25 0"/>
<feBlend mode="normal" in2="BackgroundImageFix" result="effect1_dropShadow_72_248"/>
<feBlend mode="normal" in="SourceGraphic" in2="effect1_dropShadow_72_248" result="shape"/>
</filter>
<clipPath id="clip0_72_248">
<rect width="22.37" height="22.37" fill="white" transform="translate(62.0711 247.638) rotate(-30)"/>
</clipPath>
<clipPath id="clip1_72_248">
<rect width="22.37" height="22.37" fill="white" transform="translate(294.547 113.418) rotate(-30)"/>
</clipPath>
<clipPath id="clip2_72_248">
<rect width="22.37" height="22.37" fill="white" transform="translate(217.055 158.158) rotate(-30)"/>
</clipPath>
<clipPath id="clip3_72_248">
<rect width="22.37" height="22.37" fill="white" transform="translate(139.563 202.898) rotate(-30)"/>
</clipPath>
<clipPath id="clip4_72_248">
<rect width="22.37" height="22.37" fill="white" transform="translate(247.669 49.0002) rotate(-30)"/>
</clipPath>
</defs>
</svg>
