<svg width="28" height="29" viewBox="0 0 28 29" fill="none" xmlns="http://www.w3.org/2000/svg">
<g opacity="0.5" clip-path="url(#clip0_72_58)">
<path d="M14.8049 8.34923L19.5778 16.6161C20.495 18.2047 19.9512 20.2344 18.3625 21.1516C16.7738 22.0688 14.7442 21.525 13.8269 19.9363L8.63904 10.9506C8.36386 10.474 8.28929 9.90757 8.43174 9.37596C8.57418 8.84435 8.92197 8.39109 9.39861 8.11591C9.87524 7.84073 10.4417 7.76616 10.9733 7.9086C11.5049 8.05105 11.9581 8.39884 12.2333 8.87547L16.5912 16.4235C16.8194 16.8188 16.6827 17.3291 16.2873 17.5573C15.892 17.7856 15.3817 17.6489 15.1534 17.2535L11.2106 10.4244L10.1324 11.0469L14.0752 17.8761C14.3503 18.3527 14.8036 18.7005 15.3352 18.8429C15.8668 18.9854 16.4332 18.9108 16.9099 18.6356C17.3865 18.3604 17.7343 17.9072 17.8767 17.3756C18.0192 16.844 17.9446 16.2775 17.6694 15.8009L13.3116 8.25292C12.3944 6.66425 10.3647 6.12041 8.77606 7.03763C7.18739 7.95485 6.64354 9.98451 7.56076 11.5732L12.7487 20.5589C14.0104 22.7442 16.7997 23.4916 18.985 22.2299C21.1704 20.9682 21.9178 18.1788 20.6561 15.9935L15.8832 7.72668L14.8049 8.34923Z" fill="#1B1A57"/>
</g>
<defs>
<clipPath id="clip0_72_58">
<rect width="19.9215" height="19.9215" fill="white" transform="translate(0.453613 10.8842) rotate(-30)"/>
</clipPath>
</defs>
</svg>
