<svg width="406" height="335" viewBox="0 0 406 335" fill="none" xmlns="http://www.w3.org/2000/svg">
<g opacity="0.1">
<circle cx="393.577" cy="148.443" r="8.5" transform="rotate(150 393.577 148.443)" fill="white"/>
<ellipse cx="373.827" cy="114.235" rx="8.5" ry="8" transform="rotate(150 373.827 114.235)" fill="white"/>
<circle cx="354.077" cy="80.0272" r="8.5" transform="rotate(150 354.077 80.0272)" fill="white"/>
<ellipse cx="334.327" cy="45.8192" rx="8.5" ry="8" transform="rotate(150 334.327 45.8192)" fill="white"/>
<circle cx="314.577" cy="11.6112" r="8.5" transform="rotate(150 314.577 11.6112)" fill="white"/>
<circle cx="359.802" cy="167.943" r="8.5" transform="rotate(150 359.802 167.943)" fill="white"/>
<ellipse cx="340.052" cy="133.735" rx="8.5" ry="8" transform="rotate(150 340.052 133.735)" fill="white"/>
<circle cx="320.302" cy="99.5272" r="8.5" transform="rotate(150 320.302 99.5272)" fill="white"/>
<ellipse cx="300.552" cy="65.3192" rx="8.5" ry="8" transform="rotate(150 300.552 65.3192)" fill="white"/>
<circle cx="280.802" cy="31.1112" r="8.5" transform="rotate(150 280.802 31.1112)" fill="white"/>
<circle cx="326.027" cy="187.443" r="8.5" transform="rotate(150 326.027 187.443)" fill="white"/>
<ellipse cx="306.277" cy="153.235" rx="8.5" ry="8" transform="rotate(150 306.277 153.235)" fill="white"/>
<circle cx="286.527" cy="119.027" r="8.5" transform="rotate(150 286.527 119.027)" fill="white"/>
<ellipse cx="266.777" cy="84.8192" rx="8.5" ry="8" transform="rotate(150 266.777 84.8192)" fill="white"/>
<circle cx="247.027" cy="50.6112" r="8.5" transform="rotate(150 247.027 50.6112)" fill="white"/>
<circle cx="292.252" cy="206.943" r="8.5" transform="rotate(150 292.252 206.943)" fill="white"/>
<ellipse cx="272.502" cy="172.735" rx="8.5" ry="8" transform="rotate(150 272.502 172.735)" fill="white"/>
<circle cx="252.752" cy="138.527" r="8.5" transform="rotate(150 252.752 138.527)" fill="white"/>
<ellipse cx="233.002" cy="104.319" rx="8.5" ry="8" transform="rotate(150 233.002 104.319)" fill="white"/>
<circle cx="213.252" cy="70.1112" r="8.5" transform="rotate(150 213.252 70.1112)" fill="white"/>
<circle cx="257.611" cy="226.943" r="8.5" transform="rotate(150 257.611 226.943)" fill="white"/>
<ellipse cx="237.861" cy="192.735" rx="8.5" ry="8" transform="rotate(150 237.861 192.735)" fill="white"/>
<circle cx="218.111" cy="158.527" r="8.5" transform="rotate(150 218.111 158.527)" fill="white"/>
<ellipse cx="198.361" cy="124.319" rx="8.5" ry="8" transform="rotate(150 198.361 124.319)" fill="white"/>
<circle cx="178.611" cy="90.1112" r="8.5" transform="rotate(150 178.611 90.1112)" fill="white"/>
</g>
<g opacity="0.1">
<circle cx="226.577" cy="244.443" r="8.5" transform="rotate(150 226.577 244.443)" fill="white"/>
<ellipse cx="206.827" cy="210.235" rx="8.5" ry="8" transform="rotate(150 206.827 210.235)" fill="white"/>
<circle cx="187.077" cy="176.027" r="8.5" transform="rotate(150 187.077 176.027)" fill="white"/>
<ellipse cx="167.327" cy="141.819" rx="8.5" ry="8" transform="rotate(150 167.327 141.819)" fill="white"/>
<circle cx="147.577" cy="107.611" r="8.5" transform="rotate(150 147.577 107.611)" fill="white"/>
<circle cx="192.802" cy="263.943" r="8.5" transform="rotate(150 192.802 263.943)" fill="white"/>
<ellipse cx="173.052" cy="229.735" rx="8.5" ry="8" transform="rotate(150 173.052 229.735)" fill="white"/>
<circle cx="153.302" cy="195.527" r="8.5" transform="rotate(150 153.302 195.527)" fill="white"/>
<ellipse cx="133.552" cy="161.319" rx="8.5" ry="8" transform="rotate(150 133.552 161.319)" fill="white"/>
<circle cx="113.802" cy="127.111" r="8.5" transform="rotate(150 113.802 127.111)" fill="white"/>
<circle cx="159.027" cy="283.443" r="8.5" transform="rotate(150 159.027 283.443)" fill="white"/>
<ellipse cx="139.277" cy="249.235" rx="8.5" ry="8" transform="rotate(150 139.277 249.235)" fill="white"/>
<circle cx="119.527" cy="215.027" r="8.5" transform="rotate(150 119.527 215.027)" fill="white"/>
<ellipse cx="99.7773" cy="180.819" rx="8.5" ry="8" transform="rotate(150 99.7773 180.819)" fill="white"/>
<circle cx="80.0273" cy="146.611" r="8.5" transform="rotate(150 80.0273 146.611)" fill="white"/>
<circle cx="125.252" cy="302.943" r="8.5" transform="rotate(150 125.252 302.943)" fill="white"/>
<ellipse cx="105.502" cy="268.735" rx="8.5" ry="8" transform="rotate(150 105.502 268.735)" fill="white"/>
<circle cx="85.7523" cy="234.527" r="8.5" transform="rotate(150 85.7523 234.527)" fill="white"/>
<ellipse cx="66.0023" cy="200.319" rx="8.5" ry="8" transform="rotate(150 66.0023 200.319)" fill="white"/>
<circle cx="46.2523" cy="166.111" r="8.5" transform="rotate(150 46.2523 166.111)" fill="white"/>
<circle cx="90.6113" cy="322.943" r="8.5" transform="rotate(150 90.6113 322.943)" fill="white"/>
<ellipse cx="70.8613" cy="288.735" rx="8.5" ry="8" transform="rotate(150 70.8613 288.735)" fill="white"/>
<circle cx="51.1113" cy="254.527" r="8.5" transform="rotate(150 51.1113 254.527)" fill="white"/>
<ellipse cx="31.3613" cy="220.319" rx="8.5" ry="8" transform="rotate(150 31.3613 220.319)" fill="white"/>
<circle cx="11.6113" cy="186.111" r="8.5" transform="rotate(150 11.6113 186.111)" fill="white"/>
</g>
</svg>
