<svg width="32" height="32" viewBox="0 0 32 32" fill="none" xmlns="http://www.w3.org/2000/svg">
<g clip-path="url(#clip0_72_214)">
<path d="M16.9917 21.9393C18.4243 21.1118 19.5388 19.8288 20.1579 18.2945L25.7551 19.7943L26.2375 17.9939L20.6403 16.4942C20.8717 14.8556 20.5481 13.1867 19.721 11.7533C17.6653 8.19272 13.0956 6.96828 9.53499 9.02399C5.9744 11.0797 4.74995 15.6494 6.80566 19.21C8.86137 22.7706 13.4311 23.995 16.9917 21.9393ZM10.4671 10.6384C13.1381 9.09627 16.5644 10.0143 18.1066 12.6854C19.6487 15.3564 18.7306 18.7828 16.0596 20.3249C13.3885 21.867 9.96221 20.9489 8.42008 18.2779C6.87795 15.6068 7.79603 12.1805 10.4671 10.6384Z" fill="#4F5E7B"/>
</g>
<defs>
<clipPath id="clip0_72_214">
<rect width="22.37" height="22.37" fill="white" transform="translate(0.53125 12.0699) rotate(-30)"/>
</clipPath>
</defs>
</svg>
