<svg width="28" height="28" viewBox="0 0 28 28" fill="none" xmlns="http://www.w3.org/2000/svg">
<g clip-path="url(#clip0_72_386)">
<path d="M14.7967 19.5069C16.0725 18.7699 17.0651 17.6274 17.6163 16.261L22.6009 17.5967L23.0305 15.9933L18.046 14.6577C18.252 13.1985 17.9638 11.7122 17.2273 10.4358C15.3966 7.26491 11.3271 6.17448 8.15618 8.00519C4.98531 9.83589 3.89488 13.9054 5.72559 17.0763C7.55629 20.2472 11.6258 21.3376 14.7967 19.5069ZM8.98624 9.4429C11.3649 8.06956 14.4162 8.88715 15.7896 11.2658C17.1629 13.6445 16.3453 16.6958 13.9666 18.0692C11.5879 19.4425 8.53664 18.6249 7.1633 16.2462C5.78996 13.8675 6.60755 10.8162 8.98624 9.4429Z" fill="#4F5E7B"/>
</g>
<defs>
<clipPath id="clip0_72_386">
<rect width="19.9215" height="19.9215" fill="white" transform="translate(0.137573 10.7178) rotate(-30)"/>
</clipPath>
</defs>
</svg>
