<svg width="12" height="10" viewBox="0 0 12 10" fill="none" xmlns="http://www.w3.org/2000/svg">
<path fill-rule="evenodd" clip-rule="evenodd" d="M5.83117 3.55559C7.43047 2.63233 9.32306 2.35828 11.1178 2.7901C11.2541 2.82471 11.393 2.74309 11.4291 2.60713L11.7777 1.28414C11.796 1.21523 11.786 1.1419 11.75 1.0804C11.714 1.01889 11.655 0.97428 11.5859 0.956428C6.862 -0.200164 2.06269 2.57072 0.702356 7.24007C0.683255 7.30876 0.69232 7.3822 0.727543 7.44415C0.762767 7.50609 0.821246 7.55144 0.890039 7.57015L2.21032 7.92962C2.34614 7.96648 2.48637 7.88695 2.52445 7.75146C3.04795 5.98113 4.23175 4.47901 5.83117 3.55559ZM10.1721 7.3759C10.1914 7.30646 10.1812 7.23215 10.1439 7.17051C10.1066 7.10886 10.0455 7.06535 9.97507 7.05024C8.60528 6.80376 7.25696 7.58221 6.78553 8.89172C6.76332 8.9603 6.7704 9.03497 6.8051 9.09812C6.83979 9.16126 6.89903 9.20727 6.96882 9.2253L9.24977 9.84642C9.31669 9.86474 9.38818 9.85552 9.4483 9.82081C9.50841 9.7861 9.55214 9.7288 9.56974 9.66169L10.1721 7.3759ZM10.3174 5.83572C9.32586 5.62246 8.29012 5.78534 7.41146 6.29271C6.53356 6.80005 5.87529 7.61517 5.56439 8.57988C5.52458 8.71438 5.38476 8.79268 5.24929 8.75636L3.93045 8.39605C3.86104 8.37738 3.80204 8.33163 3.7667 8.26906C3.73136 8.2065 3.72264 8.13235 3.74248 8.06326C4.66161 5.07468 7.73322 3.30129 10.781 3.99959C10.8507 4.01696 10.9105 4.06156 10.9471 4.1234C10.9836 4.18524 10.9938 4.25917 10.9754 4.32863L10.6278 5.65107C10.5915 5.78655 10.4538 5.86849 10.3174 5.83572Z" fill="#21205A"/>
</svg>
