<svg width="12" height="10" viewBox="0 0 12 10" fill="none" xmlns="http://www.w3.org/2000/svg">
<path fill-rule="evenodd" clip-rule="evenodd" d="M5.62231 3.65813C7.22161 2.73487 9.1142 2.46082 10.9089 2.89264C11.0453 2.92725 11.1841 2.84563 11.2203 2.70967L11.5689 1.38668C11.5871 1.31777 11.5771 1.24444 11.5411 1.18294C11.5051 1.12143 11.4461 1.07682 11.3771 1.05897C6.65314 -0.0976246 1.85382 2.67326 0.493493 7.34261C0.474393 7.4113 0.483457 7.48474 0.518681 7.54669C0.553905 7.60863 0.612383 7.65398 0.681177 7.67269L2.00145 8.03216C2.13728 8.06902 2.27751 7.98949 2.31559 7.85399C2.83908 6.08367 4.02288 4.58155 5.62231 3.65813ZM9.96336 7.47842C9.98269 7.40898 9.97252 7.33467 9.93522 7.27302C9.89793 7.21138 9.83684 7.16786 9.76636 7.15276C8.39657 6.90627 7.04825 7.68473 6.57682 8.99424C6.55461 9.06281 6.56169 9.13749 6.59639 9.20063C6.63108 9.26378 6.69032 9.30979 6.76011 9.32781L9.04106 9.94893C9.10798 9.96725 9.17948 9.95803 9.23959 9.92333C9.2997 9.88862 9.34343 9.83132 9.36103 9.7642L9.96336 7.47842ZM10.1087 5.93823C9.11715 5.72498 8.08141 5.88786 7.20275 6.39523C6.32485 6.90257 5.66658 7.71769 5.35568 8.6824C5.31588 8.81689 5.17605 8.8952 5.04058 8.85887L3.72175 8.49857C3.65233 8.4799 3.59333 8.43415 3.55799 8.37158C3.52265 8.30901 3.51393 8.23487 3.53378 8.16577C4.4529 5.1772 7.52451 3.4038 10.5723 4.1021C10.642 4.11948 10.7018 4.16408 10.7384 4.22592C10.7749 4.28776 10.7851 4.36168 10.7667 4.43115L10.4191 5.75358C10.3828 5.88907 10.2451 5.97101 10.1087 5.93823Z" fill="#21205A"/>
</svg>
