<svg width="12" height="10" viewBox="0 0 12 10" fill="none" xmlns="http://www.w3.org/2000/svg">
<path fill-rule="evenodd" clip-rule="evenodd" d="M5.5617 3.20574C7.161 2.28248 9.05359 2.00843 10.8483 2.44025C10.9847 2.47486 11.1235 2.39324 11.1597 2.25728L11.5082 0.93429C11.5265 0.865374 11.5165 0.79205 11.4805 0.730546C11.4445 0.669041 11.3855 0.624427 11.3165 0.606575C6.59253 -0.550017 1.79322 2.22087 0.432885 6.89022C0.413785 6.9589 0.422849 7.03235 0.458073 7.09429C0.493297 7.15624 0.551776 7.20159 0.620569 7.22029L1.94085 7.57976C2.07667 7.61663 2.2169 7.53709 2.25498 7.4016C2.77848 5.63127 3.96228 4.12916 5.5617 3.20574ZM9.90269 7.02604C9.92202 6.9566 9.91184 6.88229 9.87455 6.82065C9.83726 6.759 9.77616 6.71549 9.70568 6.70038C8.3359 6.4539 6.98758 7.23235 6.51615 8.54186C6.49394 8.61044 6.50102 8.68511 6.53572 8.74826C6.57041 8.8114 6.62965 8.85741 6.69944 8.87544L8.98039 9.49656C9.04731 9.51488 9.1188 9.50566 9.17892 9.47095C9.23903 9.43624 9.28276 9.37894 9.30036 9.31183L9.90269 7.02604ZM10.048 5.48586C9.05648 5.2726 8.02074 5.43549 7.14208 5.94285C6.26418 6.45019 5.60591 7.26531 5.29501 8.23002C5.2552 8.36452 5.11538 8.44282 4.97991 8.4065L3.66107 8.0462C3.59165 8.02752 3.53266 7.98177 3.49732 7.9192C3.46198 7.85664 3.45326 7.78249 3.4731 7.7134C4.39223 4.72482 7.46384 2.95143 10.5116 3.64973C10.5813 3.6671 10.6412 3.7117 10.6777 3.77354C10.7143 3.83538 10.7245 3.90931 10.7061 3.97877L10.3584 5.30121C10.3222 5.43669 10.1844 5.51863 10.048 5.48586Z" fill="#21205A"/>
</svg>
